<svg width="33" height="33" viewBox="0 0 33 33" fill="none" xmlns="http://www.w3.org/2000/svg">
<g clip-path="url(#clip0_241_1718)">
<path d="M24.4715 12.9515C24.5742 12.5675 24.5202 12.1584 24.3214 11.8142C24.1227 11.4699 23.7954 11.2186 23.4115 11.1155L15.6838 9.04269C15.2994 8.93969 14.8898 8.99361 14.5452 9.19259C14.2005 9.39156 13.9491 9.7193 13.8461 10.1037C13.7431 10.4881 13.797 10.8976 13.996 11.2423C14.1949 11.5869 14.5227 11.8384 14.9071 11.9414L19.1368 13.0755L9.14719 18.843C8.80266 19.0419 8.55126 19.3695 8.4483 19.7538C8.34533 20.1381 8.39923 20.5475 8.59815 20.892C8.79706 21.2365 9.12469 21.4879 9.50896 21.5909C9.89323 21.6939 10.3027 21.64 10.6472 21.4411L20.6368 15.6736L19.5036 19.9028C19.4526 20.0931 19.4396 20.2916 19.4653 20.487C19.491 20.6823 19.5549 20.8707 19.6535 21.0414C19.752 21.212 19.8832 21.3616 20.0395 21.4815C20.1958 21.6015 20.3742 21.6895 20.5646 21.7405C20.7549 21.7915 20.9534 21.8045 21.1488 21.7788C21.3441 21.753 21.5325 21.6891 21.7032 21.5906C21.8738 21.492 22.0234 21.3609 22.1433 21.2046C22.2633 21.0482 22.3513 20.8698 22.4023 20.6795L24.4715 12.9515Z" fill="white"/>
</g>
<defs>
<clipPath id="clip0_241_1718">
<rect width="24" height="24" fill="white" transform="translate(20.7852) rotate(60)"/>
</clipPath>
</defs>
</svg>
