<svg width="24" height="24" viewBox="0 0 24 24" fill="none" xmlns="http://www.w3.org/2000/svg">
<path d="M12 0C5.3725 0 0 5.22912 0 11.6797C0 18.1304 5.3725 23.3595 12 23.3595C18.6275 23.3595 24 18.1304 24 11.6797C24 5.22912 18.6275 0 12 0ZM9.0625 16.5207H6.6325V8.90945H9.0625V16.5207ZM7.8325 7.97507C7.065 7.97507 6.56875 7.44583 6.56875 6.79128C6.56875 6.12335 7.08 5.60992 7.86375 5.60992C8.6475 5.60992 9.1275 6.12335 9.1425 6.79128C9.1425 7.44583 8.6475 7.97507 7.8325 7.97507ZM17.9375 16.5207H15.5075V12.3027C15.5075 11.3208 15.155 10.6541 14.2763 10.6541C13.605 10.6541 13.2063 11.1055 13.03 11.5398C12.965 11.6943 12.9488 11.9133 12.9488 12.1311V16.5195H10.5175V11.3366C10.5175 10.3865 10.4862 9.59198 10.4537 8.90823H12.565L12.6763 9.96549H12.725C13.045 9.4691 13.8288 8.73669 15.14 8.73669C16.7388 8.73669 17.9375 9.77935 17.9375 12.0204V16.5207Z" fill="#CAA05C"/>
</svg>
