<svg width="24" height="24" viewBox="0 0 24 24" fill="none" xmlns="http://www.w3.org/2000/svg">
<path d="M16.3687 6.89052C15.5756 6.20367 14.6232 5.71419 13.5932 5.46401C12.5632 5.21383 11.4862 5.2104 10.4545 5.45402C10.6366 5.69127 11.8339 7.27637 12.9134 9.20822C15.2571 8.3531 16.2482 7.05477 16.3687 6.89052ZM13.125 12.7434C9.40982 14.0026 8.07321 16.5133 7.95536 16.7479C9.07232 17.5952 10.4759 18.101 12 18.101C12.9134 18.101 13.7839 17.9211 14.5741 17.5926C14.475 17.0295 14.0946 15.0689 13.1679 12.7278L13.125 12.7434ZM14.4027 12.4332C15.2652 14.7378 15.6161 16.6149 15.683 17.006C17.1616 16.0336 18.2143 14.4928 18.5063 12.7069C18.2812 12.6391 16.4679 12.1125 14.4027 12.4332ZM12 0C5.37321 0 0 5.22981 0 11.6797C0 18.1297 5.37321 23.3595 12 23.3595C18.6268 23.3595 24 18.1297 24 11.6797C24 5.22981 18.6268 0 12 0ZM12 19.1881C7.74643 19.1881 4.28571 15.8198 4.28571 11.6797C4.28571 7.53969 7.74643 4.17133 12 4.17133C16.2536 4.17133 19.7143 7.53969 19.7143 11.6797C19.7143 15.8198 16.2536 19.1881 12 19.1881ZM13.4223 10.1624C13.575 10.4674 13.7223 10.7777 13.8589 11.0905C13.9071 11.2 13.9554 11.3095 14.0009 11.4216C16.192 11.1531 18.3723 11.5833 18.5893 11.6276C18.5759 10.1129 18.0188 8.7233 17.1027 7.63094C16.9607 7.81604 15.8571 9.19519 13.4223 10.1624ZM11.6411 9.59407C10.5482 7.70393 9.37232 6.11622 9.19821 5.88419C7.35536 6.73149 5.97589 8.38438 5.55 10.3736C5.84464 10.3788 8.56071 10.3918 11.6411 9.59407ZM12.4607 11.7449C12.5464 11.7188 12.6321 11.6928 12.7205 11.6693C12.5545 11.3043 12.375 10.9393 12.1875 10.5822C8.89821 11.5416 5.70268 11.4998 5.41607 11.4946C5.41339 11.5598 5.41339 11.625 5.41339 11.6902C5.41339 13.3378 6.05357 14.8421 7.10625 15.9788C7.25357 15.7285 9.06161 12.8138 12.4607 11.7449Z" fill="#CAA05C"/>
</svg>
