<svg width="50" height="50" viewBox="0 0 50 50" fill="none" xmlns="http://www.w3.org/2000/svg">
    <path d="M18.7513 36.4583C18.7513 35.3533 18.3123 34.2934 17.5309 33.512C16.7495 32.7306 15.6897 32.2917 14.5846 32.2917C13.4796 32.2917 12.4198 32.7306 11.6384 33.512C10.857 34.2934 10.418 35.3533 10.418 36.4583C10.418 37.5634 10.857 38.6232 11.6384 39.4046C12.4198 40.186 13.4796 40.625 14.5846 40.625C15.6897 40.625 16.7495 40.186 17.5309 39.4046C18.3123 38.6232 18.7513 37.5634 18.7513 36.4583ZM38.543 36.4583C38.543 35.3533 38.104 34.2934 37.3226 33.512C36.5412 32.7306 35.4814 32.2917 34.3763 32.2917C33.2712 32.2917 32.2114 32.7306 31.43 33.512C30.6486 34.2934 30.2096 35.3533 30.2096 36.4583C30.2096 37.5634 30.6486 38.6232 31.43 39.4046C32.2114 40.186 33.2712 40.625 34.3763 40.625C35.4814 40.625 36.5412 40.186 37.3226 39.4046C38.104 38.6232 38.543 37.5634 38.543 36.4583Z" stroke="#D5A13A" stroke-width="4.16667" stroke-linejoin="round"/>
    <path d="M4.16797 36.4583H10.418M18.7513 36.4583H30.2096M38.543 36.4583H45.8346" stroke="#D5A13A" stroke-width="4.16667" stroke-linecap="round"/>
    <path d="M39.5846 19.7917L45.8346 13.5417M45.8346 13.5417L39.5846 7.29166M45.8346 13.5417H4.16797" stroke="#D5A13A" stroke-width="4.16667" stroke-linecap="round" stroke-linejoin="round"/>
</svg>
