<svg width="18" height="18" viewBox="0 0 18 18" fill="none" xmlns="http://www.w3.org/2000/svg">
<path d="M14.0196 17.4996C13.2571 17.4996 12.186 17.2239 10.5821 16.3278C8.63171 15.234 7.12312 14.2242 5.18327 12.2895C3.31296 10.4203 2.4028 9.21018 1.12898 6.89221C-0.310086 4.27503 -0.0647735 2.90315 0.209445 2.31682C0.536008 1.61604 1.01804 1.1969 1.64109 0.780888C1.99497 0.549026 2.36947 0.350269 2.75984 0.187138C2.7989 0.170341 2.83523 0.154325 2.86765 0.139872C3.06101 0.0527626 3.35398 -0.078878 3.72507 0.0617469C3.97273 0.154716 4.19382 0.34495 4.53992 0.686747C5.24968 1.38675 6.2196 2.94573 6.57741 3.71136C6.81765 4.22737 6.97663 4.568 6.97702 4.95003C6.97702 5.39729 6.75202 5.74222 6.47898 6.11448C6.42781 6.1844 6.37702 6.2512 6.32781 6.31604C6.03054 6.70667 5.96531 6.81956 6.00827 7.02112C6.09538 7.4262 6.74499 8.63206 7.81257 9.69729C8.88015 10.7625 10.0512 11.3711 10.4579 11.4578C10.668 11.5028 10.7833 11.4348 11.1864 11.127C11.2442 11.0828 11.3036 11.0371 11.3657 10.9914C11.7821 10.6817 12.111 10.4625 12.5477 10.4625H12.5501C12.9302 10.4625 13.2555 10.6274 13.7946 10.8992C14.4977 11.2539 16.1036 12.2114 16.8079 12.9219C17.1505 13.2672 17.3415 13.4875 17.4348 13.7348C17.5755 14.1071 17.443 14.3989 17.3567 14.5942C17.3423 14.6266 17.3262 14.6621 17.3094 14.7016C17.145 15.0913 16.9451 15.465 16.7122 15.818C16.2969 16.4391 15.8762 16.9199 15.1739 17.2469C14.8133 17.4175 14.4185 17.5039 14.0196 17.4996Z" fill="white"/>
</svg>
