<svg width="50" height="50" viewBox="0 0 50 50" fill="none" xmlns="http://www.w3.org/2000/svg">
    <path d="M8.33464 41.6667C7.1888 41.6667 6.20825 41.259 5.39297 40.4438C4.57769 39.6285 4.16936 38.6472 4.16797 37.5V12.5C4.16797 11.3542 4.5763 10.3736 5.39297 9.55834C6.20964 8.74307 7.19019 8.33473 8.33464 8.33334H41.668C42.8138 8.33334 43.7951 8.74168 44.6117 9.55834C45.4284 10.375 45.836 11.3556 45.8346 12.5V22.9167C45.8346 23.507 45.6346 24.0021 45.2346 24.4021C44.8346 24.8021 44.3402 25.0014 43.7513 25C43.1624 24.9986 42.668 24.7986 42.268 24.4C41.868 24.0014 41.668 23.507 41.668 22.9167V12.5H8.33464V37.5H27.0846C27.6749 37.5 28.1701 37.7 28.5701 38.1C28.9701 38.5 29.1694 38.9945 29.168 39.5833C29.1666 40.1722 28.9666 40.6674 28.568 41.0688C28.1694 41.4701 27.6749 41.6695 27.0846 41.6667H8.33464ZM25.8346 20.8333L30.5221 25.5208C30.9041 25.9028 31.0951 26.3806 31.0951 26.9542C31.0951 27.5278 30.9041 28.0222 30.5221 28.4375C30.1055 28.8542 29.611 29.0625 29.0388 29.0625C28.4666 29.0625 27.9714 28.8542 27.5534 28.4375L22.918 23.8021V26.3542C22.918 26.9445 22.7187 27.4396 22.3201 27.8396C21.9214 28.2396 21.4263 28.4389 20.8346 28.4375C20.243 28.4361 19.7485 28.2361 19.3513 27.8375C18.9541 27.4389 18.7541 26.9445 18.7513 26.3542V18.75C18.7513 18.1597 18.9513 17.6653 19.3513 17.2667C19.7513 16.8681 20.2457 16.6681 20.8346 16.6667H28.4388C29.0291 16.6667 29.5242 16.8667 29.9242 17.2667C30.3242 17.6667 30.5235 18.1611 30.5221 18.75C30.5207 19.3389 30.3207 19.834 29.9221 20.2354C29.5235 20.6368 29.0291 20.8361 28.4388 20.8333H25.8346ZM39.5846 41.6667C37.8485 41.6667 36.3728 41.059 35.1576 39.8438C33.9423 38.6285 33.3346 37.1528 33.3346 35.4167C33.3346 33.6806 33.9423 32.2049 35.1576 30.9896C36.3728 29.7743 37.8485 29.1667 39.5846 29.1667C41.3208 29.1667 42.7964 29.7743 44.0117 30.9896C45.227 32.2049 45.8346 33.6806 45.8346 35.4167C45.8346 37.1528 45.227 38.6285 44.0117 39.8438C42.7964 41.059 41.3208 41.6667 39.5846 41.6667Z" fill="#D5A13A"/>
</svg>
