<svg width="24" height="24" viewBox="0 0 24 24" fill="none" xmlns="http://www.w3.org/2000/svg">
<path d="M12 0C18.6343 0 24 5.22251 24 11.6797C24 18.137 18.6343 23.3595 12 23.3595C5.36571 23.3595 0 18.137 0 11.6797C0 5.22251 5.36571 0 12 0ZM9.80571 17.8366C15.12 17.8366 18.0343 13.5485 18.0343 9.82766V9.46059C18.6 9.06014 19.0971 8.55958 19.4743 7.99228C18.96 8.20919 18.3943 8.35935 17.8114 8.44278C18.4114 8.09239 18.8743 7.54177 19.08 6.89105C18.5143 7.20807 17.8971 7.44166 17.2457 7.57514C16.7143 7.02453 15.96 6.69082 15.1371 6.69082C13.5429 6.69082 12.24 7.95891 12.24 9.51064C12.24 9.72755 12.2571 9.94446 12.3257 10.1447C9.92571 10.0279 7.78286 8.90997 6.36 7.20807C6.12 7.6252 5.96571 8.10907 5.96571 8.62632C5.96571 9.59407 6.48 10.4617 7.25143 10.9623C6.77143 10.9623 6.32571 10.8288 5.94857 10.6119V10.6452C5.94857 12.0134 6.94286 13.148 8.26286 13.415C8.02286 13.4818 7.76571 13.5151 7.50857 13.5151C7.32 13.5151 7.14857 13.4984 6.96 13.4651C7.32 14.583 8.4 15.4006 9.65143 15.4173C8.65714 16.1681 7.40571 16.6186 6.05143 16.6186C5.81143 16.6186 5.58857 16.6186 5.36571 16.5852C6.63429 17.3861 8.16 17.8533 9.78857 17.8533" fill="#CAA05C"/>
</svg>
